<?xml version="1.0" encoding="utf-8"?>
<!-- Generator: Adobe Illustrator 16.0.0, SVG Export Plug-In . SVG Version: 6.00 Build 0)  -->
<!DOCTYPE svg PUBLIC "-//W3C//DTD SVG 1.1//EN" "http://www.w3.org/Graphics/SVG/1.1/DTD/svg11.dtd">
<svg version="1.1" id="Layer_1" xmlns="http://www.w3.org/2000/svg" xmlns:xlink="http://www.w3.org/1999/xlink" x="0px" y="0px"
	 width="101.539px" height="103.077px" viewBox="0 0 101.539 103.077" enable-background="new 0 0 101.539 103.077"
	 xml:space="preserve">
<path fill-rule="evenodd" clip-rule="evenodd" fill="#F15D22" d="M7.336,49.632c0-24.038,19.486-43.529,43.529-43.529
	c24.037,0,43.527,19.491,43.527,43.529c0,24.036-19.49,43.526-43.527,43.526C26.822,93.158,7.336,73.668,7.336,49.632z"/>
<path fill-rule="evenodd" clip-rule="evenodd" fill="#FFFFFF" d="M39.91,35.176c0,4.831-3.921,8.755-8.759,8.755
	c-4.836,0-8.759-3.924-8.759-8.755c0-4.843,3.923-8.76,8.759-8.76C35.989,26.416,39.91,30.333,39.91,35.176z"/>
<path fill-rule="evenodd" clip-rule="evenodd" fill="#FFFFFF" d="M79.102,35.176c0,4.831-3.922,8.755-8.759,8.755
	c-4.836,0-8.761-3.924-8.761-8.755c0-4.843,3.925-8.76,8.761-8.76C75.18,26.416,79.102,30.333,79.102,35.176z"/>
<path fill-rule="evenodd" clip-rule="evenodd" fill="#747474" d="M69.117,58.866c0,10.516-8.521,19.035-19.035,19.035
	c-10.512,0-19.033-8.52-19.033-19.035c0-10.511,8.521-19.03,19.033-19.03C60.596,39.836,69.117,48.355,69.117,58.866z"/>
<path fill-rule="evenodd" clip-rule="evenodd" fill="#FFFFFF" d="M6.024,49.554c0-24.778,20.071-44.853,44.837-44.853
	c24.769,0,44.851,20.075,44.851,44.853c0,24.75-20.082,44.835-44.851,44.835C26.096,94.389,6.024,74.305,6.024,49.554z"/>
<path fill-rule="evenodd" clip-rule="evenodd" fill="#00A7A6" d="M39.838,35.874c0,5.025-4.077,9.101-9.096,9.101
	c-5.017,0-9.091-4.076-9.091-9.101c0-5.014,4.074-9.09,9.091-9.09C35.761,26.784,39.838,30.859,39.838,35.874z"/>
<path fill-rule="evenodd" clip-rule="evenodd" fill="#00A7A6" d="M80.527,35.874c0,5.025-4.076,9.101-9.097,9.101
	c-5.029,0-9.077-4.076-9.077-9.101c0-5.014,4.048-9.09,9.077-9.09C76.451,26.784,80.527,30.859,80.527,35.874z"/>
<path fill-rule="evenodd" clip-rule="evenodd" fill="#00A7A6" d="M70.163,60.482c0,10.901-8.843,19.754-19.761,19.754
	c-10.913,0-19.76-8.853-19.76-19.754c0-10.92,8.847-19.765,19.76-19.765C61.32,40.718,70.163,49.562,70.163,60.482z"/>
</svg>
