<?xml version="1.0" encoding="utf-8"?>
<!-- Generator: Adobe Illustrator 16.0.0, SVG Export Plug-In . SVG Version: 6.00 Build 0)  -->
<!DOCTYPE svg PUBLIC "-//W3C//DTD SVG 1.1//EN" "http://www.w3.org/Graphics/SVG/1.1/DTD/svg11.dtd">
<svg version="1.1" id="Layer_1" xmlns="http://www.w3.org/2000/svg" xmlns:xlink="http://www.w3.org/1999/xlink" x="0px" y="0px"
	 width="101.539px" height="103.078px" viewBox="0 0 101.539 103.078" enable-background="new 0 0 101.539 103.078"
	 xml:space="preserve">
<path fill="#FFFFFF" d="M6.331,50.542c0-24.045,19.486-43.536,43.535-43.536c24.041,0,43.53,19.491,43.53,43.536
	c0,24.04-19.489,43.528-43.53,43.528C25.817,94.071,6.331,74.582,6.331,50.542z"/>
<path fill="#00A6A5" d="M38.329,27.493c4.443-0.536,7.896,2.257,8.383,6.252c1.234,10.019-13.717,11.74-14.965,2.302
	C31.128,31.392,33.985,28.019,38.329,27.493z M37.009,34.898c0.053,3.234,4.41,2.626,4.441,0c0.021-1.445-0.889-2.603-2.959-1.977
	C37.323,33.276,36.999,33.956,37.009,34.898z"/>
<path fill="#00A6A5" d="M57.009,28.884c4.451-0.535,7.898,2.258,8.394,6.257c1.229,10.014-13.721,11.736-14.969,2.297
	C49.813,32.783,52.669,29.416,57.009,28.884z M55.693,36.291c0.054,3.232,4.406,2.621,4.443,0c0.021-1.445-0.893-2.603-2.961-1.971
	C56.009,34.668,55.682,35.347,55.693,36.291z"/>
<path fill="#00A6A5" d="M67.341,46.962c0,1.723,0,3.45,0,5.172c2.813-0.635,5.875-4.162,8.543-4.946c0,7.569,0,15.136,0,22.71
	c-3.057-1.588-5.489-3.812-8.543-5.4c0,2.697,0,5.4,0,8.094c-12.59,0-25.18,0-37.771,0c0-8.539,0-17.088,0-25.628
	C42.161,46.962,54.751,46.962,67.341,46.962z"/>
</svg>
