<?xml version="1.0" encoding="utf-8"?>
<!-- Generator: Adobe Illustrator 16.0.0, SVG Export Plug-In . SVG Version: 6.00 Build 0)  -->
<!DOCTYPE svg PUBLIC "-//W3C//DTD SVG 1.1//EN" "http://www.w3.org/Graphics/SVG/1.1/DTD/svg11.dtd">
<svg version="1.1" id="Layer_1" xmlns="http://www.w3.org/2000/svg" xmlns:xlink="http://www.w3.org/1999/xlink" x="0px" y="0px"
	 width="101.539px" height="103.078px" viewBox="0 0 101.539 103.078" enable-background="new 0 0 101.539 103.078"
	 xml:space="preserve">
<path fill="#FFFFFF" d="M7.616,50.536c0-23.833,19.322-43.151,43.154-43.151c23.837,0,43.153,19.318,43.153,43.151
	c0,23.834-19.315,43.157-43.153,43.157C26.938,93.693,7.616,74.371,7.616,50.536z"/>
<g>
	<path fill="#00A6A5" d="M73.457,28.08H28.089c-1.93,0-3.496,1.574-3.496,3.512v32.23c0,1.942,1.566,3.525,3.496,3.525h17.398
		c0,0,0.769,7.033-5.27,7.033v3.521H61.33V74.38c-6.273,0-5.283-7.033-5.283-7.033h17.41c1.934,0,3.495-1.583,3.495-3.525v-32.23
		C76.952,29.654,75.391,28.08,73.457,28.08L73.457,28.08z M47.988,63.037c0-1.664,1.352-3.014,3.018-3.014
		c1.668,0,3.02,1.35,3.02,3.014c0,1.67-1.352,3.021-3.02,3.021C49.339,66.056,47.988,64.707,47.988,63.037L47.988,63.037z
		 M73.21,58.996H28.33V31.817h44.88V58.996z"/>
</g>
</svg>
