<?xml version="1.0" encoding="utf-8"?>
<!-- Generator: Adobe Illustrator 16.0.0, SVG Export Plug-In . SVG Version: 6.00 Build 0)  -->
<!DOCTYPE svg PUBLIC "-//W3C//DTD SVG 1.1//EN" "http://www.w3.org/Graphics/SVG/1.1/DTD/svg11.dtd">
<svg version="1.1" id="Layer_1" xmlns="http://www.w3.org/2000/svg" xmlns:xlink="http://www.w3.org/1999/xlink" x="0px" y="0px"
	 width="134px" height="140px" viewBox="0 0 134 140" enable-background="new 0 0 134 140" xml:space="preserve">
<circle fill="#00A6A5" cx="65.733" cy="70.519" r="58.285"/>
<g>
	<path fill="#FFFFFF" d="M76.699,53.796h5.133l-3.52,19.881c-0.395,2.293-0.4,3.957-0.039,4.988
		c0.373,1.021,1.188,1.533,2.459,1.533c1.271,0,2.521-0.285,3.738-0.878c1.228-0.59,2.322-1.489,3.309-2.715
		c0.974-1.222,1.77-2.754,2.383-4.612c0.605-1.861,0.913-4.057,0.913-6.609c0-3.658-0.612-6.791-1.829-9.387
		c-1.225-2.586-2.896-4.73-5.025-6.418c-2.134-1.684-4.639-2.918-7.521-3.709c-2.89-0.775-5.993-1.17-9.32-1.17
		c-3.812,0-7.354,0.688-10.629,2.059c-3.276,1.367-6.121,3.252-8.549,5.643c-2.416,2.398-4.313,5.244-5.684,8.551
		c-1.368,3.299-2.051,6.875-2.051,10.744c0,3.812,0.574,7.229,1.717,10.266c1.15,3.035,2.83,5.615,5.031,7.74
		c2.194,2.127,4.925,3.76,8.173,4.91c3.252,1.15,6.982,1.727,11.189,1.727c1.416,0,3.024-0.174,4.843-0.518
		c1.809-0.34,3.439-0.854,4.911-1.533l2.276,7.037c-2.008,0.982-4.051,1.664-6.129,2.055c-2.08,0.389-4.465,0.586-7.148,0.586
		c-4.744,0-9.133-0.682-13.166-2.051c-4.031-1.373-7.526-3.398-10.487-6.094c-2.958-2.682-5.272-6.021-6.937-10.008
		c-1.658-3.986-2.49-8.598-2.49-13.82c0-5.336,0.953-10.148,2.858-14.453c1.907-4.303,4.481-7.969,7.702-11
		c3.233-3.035,6.972-5.373,11.222-7.006c4.253-1.645,8.754-2.461,13.497-2.461c4.494,0,8.682,0.652,12.544,1.943
		c3.862,1.295,7.212,3.156,10.051,5.58c2.827,2.418,5.062,5.377,6.671,8.873c1.612,3.496,2.422,7.471,2.422,11.914
		c0,3.135-0.544,6.062-1.646,8.81c-1.098,2.738-2.618,5.106-4.549,7.111c-1.937,2.006-4.183,3.594-6.748,4.769
		c-2.565,1.172-5.318,1.76-8.248,1.76c-1.227,0-2.36-0.135-3.41-0.406c-1.051-0.264-1.938-0.717-2.641-1.354
		c-0.713-0.636-1.232-1.47-1.582-2.498c-0.344-1.021-0.439-2.293-0.287-3.814h-0.297c-0.733,1.031-1.525,2.039-2.386,3.015
		c-0.853,0.976-1.799,1.847-2.819,2.604c-1.03,0.758-2.156,1.354-3.375,1.789c-1.226,0.441-2.572,0.666-4.038,0.666
		c-1.176,0-2.293-0.254-3.369-0.77c-1.081-0.518-2.014-1.234-2.792-2.166c-0.779-0.932-1.408-2.049-1.868-3.375
		c-0.471-1.322-0.698-2.791-0.698-4.402c0-3.021,0.485-5.975,1.469-8.836c0.976-2.857,2.308-5.387,3.995-7.586
		c1.687-2.201,3.639-3.973,5.872-5.322c2.224-1.346,4.584-2.018,7.074-2.018c1.71,0,3.153,0.256,4.328,0.771
		c1.172,0.514,2.245,1.186,3.222,2.021L76.699,53.796z M72.077,62.679c-0.638-0.545-1.294-0.953-1.979-1.25
		c-0.684-0.295-1.537-0.438-2.564-0.438c-1.469,0-2.823,0.416-4.07,1.244c-1.249,0.828-2.324,1.904-3.231,3.225
		c-0.901,1.318-1.597,2.803-2.09,4.438c-0.489,1.641-0.732,3.245-0.732,4.801c0,1.617,0.333,2.936,0.99,3.967
		c0.66,1.029,1.795,1.541,3.413,1.541c0.683,0,1.415-0.213,2.192-0.627c0.789-0.416,1.546-0.963,2.28-1.65
		c0.733-0.682,1.443-1.467,2.126-2.344c0.688-0.879,1.292-1.809,1.839-2.785L72.077,62.679z"/>
</g>
<path fill="#ED1654" d="M-644.496-542.3c-1.408,0-2.551-1.139-2.551-2.549h5.1C-641.947-543.438-643.088-542.3-644.496-542.3
	L-644.496-542.3z"/>
<g id="Mensaje_de_error_1" display="none">
	
		<text transform="matrix(0.7071 0.7071 -0.7071 0.7071 428.5586 1064.2832)" display="inline" fill="#ED1C24" font-family="'Lato-Bold'" font-size="24">+</text>
	<text transform="matrix(1 0 0 1 451.667 1069.1387)" display="inline" fill="#ED1C24" font-family="'Lato-Light'" font-size="16">Este correo electrónico no es válido por favor </text>
	<text transform="matrix(1 0 0 1 451.667 1087.1387)" display="inline" fill="#ED1C24" font-family="'Lato-Light'" font-size="16">inténtelo nuevamente</text>
	
		<rect x="432.273" y="1015.534" display="inline" fill="none" stroke="#ED1C24" stroke-width="0.5" stroke-miterlimit="10" width="239.434" height="30"/>
</g>
<g id="Mensaje_de_error_2_copy" display="none">
	
		<text transform="matrix(0.7071 0.7071 -0.7071 0.7071 428.5586 1064.2832)" display="inline" fill="#ED1C24" font-family="'Lato-Bold'" font-size="24">+</text>
	<text transform="matrix(1 0 0 1 451.667 1069.1387)" display="inline" fill="#ED1C24" font-family="'Lato-Light'" font-size="16">Por favor escriba un correo eléctrónico para que </text>
	<text transform="matrix(1 0 0 1 451.667 1087.1387)" display="inline" fill="#ED1C24" font-family="'Lato-Light'" font-size="16">podamos informarle de las novedades </text>
	
		<rect x="432.273" y="1015.534" display="inline" fill="none" stroke="#ED1C24" stroke-width="0.5" stroke-miterlimit="10" width="239.434" height="30"/>
</g>
<g id="Mensaje_de_error_3_copy_2">
</g>
</svg>
