<?xml version="1.0" encoding="utf-8"?>
<!-- Generator: Adobe Illustrator 16.0.0, SVG Export Plug-In . SVG Version: 6.00 Build 0)  -->
<!DOCTYPE svg PUBLIC "-//W3C//DTD SVG 1.1//EN" "http://www.w3.org/Graphics/SVG/1.1/DTD/svg11.dtd">
<svg version="1.1" id="Layer_1" xmlns="http://www.w3.org/2000/svg" xmlns:xlink="http://www.w3.org/1999/xlink" x="0px" y="0px"
	 width="150px" height="146px" viewBox="0 0 150 146" enable-background="new 0 0 150 146" xml:space="preserve">
<g>
	<g>
		<path fill="#00A6A5" d="M136.27,70.648c0,34.275-27.787,62.066-62.065,62.066s-62.069-27.791-62.069-62.066
			c0-34.277,27.791-62.068,62.069-62.068S136.27,36.371,136.27,70.648z"/>
	</g>
</g>
<g>
	<g>
		<g>
			<path fill="#FFFFFF" d="M74.202,73.235c-11.977,0-21.989-10.65-22.793-24.246c-0.033-0.584-0.05-1.174-0.05-1.771
				c0-14.346,10.246-26.018,22.843-26.018c12.595,0,22.839,11.672,22.839,26.018c0,0.488-0.012,0.975-0.035,1.455
				C96.339,62.448,86.322,73.235,74.202,73.235z M52.683,49.274c0.915,12.762,10.308,22.709,21.52,22.709
				c11.261,0,20.602-9.92,21.515-22.709l-3.042,0.014l-0.003-0.947c-0.116-6.996-4.239-13.357-10.551-16.357
				c-1.695,2.943-4.213,5.641-7.305,7.822c-6.396,4.52-13.853,5.838-18.175,3.326c-0.614,1.91-0.915,3.725-0.915,5.527v0.629
				L52.683,49.274z"/>
		</g>
		<g>
			<path fill="#FFFFFF" d="M101.191,111.837h-53.98c-3.271,0-5.932-2.664-5.932-5.928V89.657c0-6.244,5.081-11.328,11.329-11.328
				h11.081l10.513,15.769l10.511-15.769h11.081c6.247,0,11.327,5.084,11.327,11.328v16.252
				C107.121,109.173,104.461,111.837,101.191,111.837z"/>
		</g>
	</g>
	<g>
		<g id="Layer_2_58_">
			<g>
				<path fill="#FFFFFF" d="M68.23,65.12c-5.895,0-6.895-4.205-6.906-4.246l-0.389-1.754l1.268,1.271
					c0.164,0.164,0.807,0.701,2.188,0.701c0.719,0,1.245-0.686,1.853-1.473c0.81-1.059,1.814-2.369,3.692-2.369
					c3.243,0,4.651,2.289,4.71,2.387l0.02,1.781c-0.168,0.34-0.373,0.666-0.606,0.969C72.6,64.274,70.077,65.12,68.23,65.12z"/>
			</g>
		</g>
		<g id="Layer_2_57_">
			<g>
				<path fill="#FFFFFF" d="M80.17,65.12c-1.585,0-4.973-0.773-6.436-3.701L73.68,61.31v-1.547l0.074-0.125
					c0.059-0.098,1.467-2.387,4.71-2.387c1.877,0,2.884,1.311,3.692,2.369c0.607,0.787,1.132,1.473,1.851,1.473
					c1.384,0,2.026-0.537,2.19-0.701l1.268-1.271l-0.389,1.754C87.064,60.915,86.064,65.12,80.17,65.12z"/>
			</g>
		</g>
	</g>
	<g>
		<path fill="#FFFFFF" d="M74.2,51.497"/>
	</g>
</g>
<path fill="#ED1654" d="M-1098.496-546.3c-1.408,0-2.551-1.139-2.551-2.549h5.1C-1095.947-547.438-1097.088-546.3-1098.496-546.3
	L-1098.496-546.3z"/>
<g id="Mensaje_de_error_1" display="none">
	
		<text transform="matrix(0.7071 0.7071 -0.7071 0.7071 -25.4409 1060.2832)" display="inline" fill="#ED1C24" font-family="'Lato-Bold'" font-size="24">+</text>
	<text transform="matrix(1 0 0 1 -2.333 1065.1387)" display="inline" fill="#ED1C24" font-family="'Lato-Light'" font-size="16">Este correo electrónico no es válido por favor </text>
	<text transform="matrix(1 0 0 1 -2.333 1083.1387)" display="inline" fill="#ED1C24" font-family="'Lato-Light'" font-size="16">inténtelo nuevamente</text>
	
		<rect x="-21.727" y="1011.534" display="inline" fill="none" stroke="#ED1C24" stroke-width="0.5" stroke-miterlimit="10" width="239.434" height="30"/>
</g>
<g id="Mensaje_de_error_2_copy" display="none">
	
		<text transform="matrix(0.7071 0.7071 -0.7071 0.7071 -25.4409 1060.2832)" display="inline" fill="#ED1C24" font-family="'Lato-Bold'" font-size="24">+</text>
	<text transform="matrix(1 0 0 1 -2.333 1065.1387)" display="inline" fill="#ED1C24" font-family="'Lato-Light'" font-size="16">Por favor escriba un correo eléctrónico para que </text>
	<text transform="matrix(1 0 0 1 -2.333 1083.1387)" display="inline" fill="#ED1C24" font-family="'Lato-Light'" font-size="16">podamos informarle de las novedades </text>
	
		<rect x="-21.727" y="1011.534" display="inline" fill="none" stroke="#ED1C24" stroke-width="0.5" stroke-miterlimit="10" width="239.434" height="30"/>
</g>
<g id="Mensaje_de_error_3_copy_2">
</g>
</svg>
