<?xml version="1.0" encoding="utf-8"?>
<!-- Generator: Adobe Illustrator 16.0.0, SVG Export Plug-In . SVG Version: 6.00 Build 0)  -->
<!DOCTYPE svg PUBLIC "-//W3C//DTD SVG 1.1//EN" "http://www.w3.org/Graphics/SVG/1.1/DTD/svg11.dtd">
<svg version="1.1" id="Layer_1" xmlns="http://www.w3.org/2000/svg" xmlns:xlink="http://www.w3.org/1999/xlink" x="0px" y="0px"
	 width="18.833px" height="19.5px" viewBox="8.985 4.538 18.833 19.5" enable-background="new 8.985 4.538 18.833 19.5"
	 xml:space="preserve">
<g>
	<circle fill="#F05D22" cx="18.346" cy="14.288" r="8.699"/>
</g>
<text transform="matrix(1 0 0 1 12.5056 16.9058)" fill="#FFFFFF" font-family="'Lato-Bold'" font-size="7.0071">&lt;/&gt;</text>
<g>
	<circle fill="#F05D22" cx="18.346" cy="14.288" r="8.699"/>
</g>
<g>
	<g>
		<path fill="#FFFFFF" d="M21.015,16.832c1.822-0.074,2.631-0.902,2.631-1.917c0-0.883-0.611-1.625-1.967-1.853
			c0.006-0.327,0.006-0.643,0.006-0.938h-8.641c0,1.93,0.002,4.736,1.737,6.076c-1.053,0.08-1.737,0.209-1.737,0.352
			c0,0.244,1.935,0.443,4.321,0.443c2.387,0,4.32-0.199,4.32-0.443c0-0.143-0.684-0.271-1.736-0.352
			C20.42,17.835,20.765,17.365,21.015,16.832z M21.648,13.901c0.76,0.178,0.895,0.551,0.887,1.033
			c-0.01,0.548-0.168,0.919-1.207,1.048C21.517,15.314,21.605,14.598,21.648,13.901z M14.088,12.794h1.351
			c-0.605,1.787,0.416,4.614,0.416,4.614C13.646,15.714,14.088,12.794,14.088,12.794z"/>
		<path fill="#FFFFFF" d="M18.073,10.957c0.172-1.556,3.606-0.776,2.892-2.798c-0.109-0.309-0.605-0.176-0.494,0.136
			c0.314,0.887-0.878,0.994-1.486,1.198c-0.729,0.243-1.333,0.65-1.423,1.464C17.525,11.286,18.037,11.283,18.073,10.957z"/>
		<path fill="#FFFFFF" d="M20.511,9.868c-0.67,0.159-1.283,0.446-1.491,1.149c-0.094,0.318,0.4,0.453,0.494,0.137
			c0.23-0.777,1.251-0.791,1.904-0.98c0.701-0.203,1.102-0.689,1.006-1.435c-0.041-0.321-0.553-0.326-0.512,0
			C22.029,9.642,21.199,9.706,20.511,9.868z"/>
	</g>
</g>
</svg>
