<?xml version="1.0" encoding="utf-8"?>
<!-- Generator: Adobe Illustrator 16.0.0, SVG Export Plug-In . SVG Version: 6.00 Build 0)  -->
<!DOCTYPE svg PUBLIC "-//W3C//DTD SVG 1.1//EN" "http://www.w3.org/Graphics/SVG/1.1/DTD/svg11.dtd">
<svg version="1.1" id="Layer_1" xmlns="http://www.w3.org/2000/svg" xmlns:xlink="http://www.w3.org/1999/xlink" x="0px" y="0px"
	 width="18.833px" height="19.5px" viewBox="8.985 4.538 18.833 19.5" enable-background="new 8.985 4.538 18.833 19.5"
	 xml:space="preserve">
<g>
	<circle fill="#F05D22" cx="18.401" cy="14.288" r="8.698"/>
</g>
<g>
	<circle fill="#F05D22" cx="18.401" cy="14.288" r="8.698"/>
</g>
<path fill="#FFFFFF" d="M19.189,18.91c-1.783,0-3.459-0.969-4.35-2.508c-1.385-2.396-0.555-5.473,1.829-6.853
	c0.813-0.479,1.768-0.708,2.705-0.665c0.231,0.018,0.43,0.142,0.523,0.34c0.108,0.201,0.076,0.445-0.046,0.632
	c-0.77,1.105-0.832,2.58-0.156,3.733c0.632,1.076,1.785,1.754,3.045,1.754c0.094,0,0.186,0,0.277-0.018
	c0.23-0.014,0.446,0.092,0.568,0.277c0.123,0.186,0.139,0.432,0.03,0.633c-0.444,0.846-1.106,1.535-1.936,2.012
	C20.927,18.679,20.065,18.91,19.189,18.91z"/>
</svg>
