<?xml version="1.0" encoding="utf-8"?>
<!-- Generator: Adobe Illustrator 16.0.0, SVG Export Plug-In . SVG Version: 6.00 Build 0)  -->
<!DOCTYPE svg PUBLIC "-//W3C//DTD SVG 1.1//EN" "http://www.w3.org/Graphics/SVG/1.1/DTD/svg11.dtd">
<svg version="1.1" id="Layer_1" xmlns="http://www.w3.org/2000/svg" xmlns:xlink="http://www.w3.org/1999/xlink" x="0px" y="0px"
	 width="18.833px" height="19.5px" viewBox="8.985 4.538 18.833 19.5" enable-background="new 8.985 4.538 18.833 19.5"
	 xml:space="preserve">
<g>
	<g>
		<circle fill="#F05D22" cx="18.401" cy="14.288" r="8.699"/>
	</g>
	<path fill="#FFFFFF" d="M18.248,8.219c-0.558,0-1.011,1.484-1.011,1.484c0,0.197,0.027,0.386,0.075,0.558
		c0.306-0.069,0.623-0.108,0.949-0.108c0.327,0,0.644,0.039,0.949,0.108c0.049-0.172,0.076-0.36,0.076-0.558
		c0,0-0.454-1.484-1.013-1.484H18.248z"/>
	<path fill="#FFFFFF" d="M17.312,18.679c-0.048,0.172-0.075,0.359-0.075,0.557c0,0,0.453,1.484,1.011,1.484h0.026
		c0.558,0,1.012-1.484,1.012-1.484c0-0.197-0.027-0.385-0.074-0.557c-0.308,0.068-0.624,0.109-0.95,0.109
		C17.934,18.787,17.617,18.748,17.312,18.679z"/>
	<path fill="#FFFFFF" d="M14.057,19.097c0.413,0.375,1.747-0.416,1.747-0.416c0.133-0.146,0.24-0.305,0.321-0.463
		c-0.557-0.318-1.035-0.756-1.402-1.279c-0.151,0.096-0.299,0.215-0.433,0.361c0,0-0.666,1.402-0.253,1.777L14.057,19.097z"/>
	<path fill="#FFFFFF" d="M14.057,9.843l-0.02,0.019c-0.413,0.376,0.253,1.777,0.253,1.777c0.133,0.146,0.28,0.267,0.433,0.362
		c0.366-0.523,0.845-0.961,1.401-1.279c-0.081-0.16-0.188-0.317-0.32-0.465C15.805,10.257,14.47,9.468,14.057,9.843z"/>
	<path fill="#FFFFFF" d="M21.8,12.001c0.15-0.096,0.299-0.216,0.432-0.361c0,0,0.666-1.402,0.254-1.778l-0.02-0.018
		c-0.414-0.377-1.748,0.414-1.748,0.414c-0.133,0.147-0.24,0.305-0.32,0.464C20.954,11.042,21.432,11.478,21.8,12.001z"/>
	<path fill="#FFFFFF" d="M22.466,19.097l0.02-0.018c0.412-0.377-0.254-1.779-0.254-1.779c-0.133-0.146-0.281-0.266-0.434-0.361
		c-0.365,0.523-0.844,0.961-1.4,1.279c0.08,0.16,0.188,0.318,0.32,0.465C20.718,18.681,22.052,19.472,22.466,19.097z"/>
	<path fill="#FFFFFF" d="M12.01,14.458v0.025c0,0.559,1.484,1.01,1.484,1.01c0.197,0,0.385-0.027,0.558-0.074
		c-0.069-0.305-0.109-0.623-0.109-0.95c0-0.326,0.04-0.643,0.109-0.949c-0.172-0.048-0.36-0.075-0.558-0.075
		C13.494,13.446,12.01,13.899,12.01,14.458z"/>
	<path fill="#FFFFFF" d="M24.694,14.458v0.025c0,0.559-1.482,1.01-1.482,1.01c-0.197,0-0.387-0.027-0.559-0.074
		c0.068-0.305,0.109-0.623,0.109-0.95c0-0.326-0.039-0.643-0.109-0.949c0.172-0.048,0.361-0.075,0.559-0.075
		C23.212,13.446,24.694,13.899,24.694,14.458z"/>
	<path fill="#FFFFFF" d="M21.087,16.695c0.367-0.467,0.621-1.025,0.721-1.639c0.031-0.189,0.053-0.385,0.053-0.586
		c0-0.199-0.021-0.395-0.053-0.586c-0.1-0.612-0.354-1.171-0.721-1.638c-0.244-0.309-0.537-0.577-0.869-0.792
		c-0.406-0.265-0.871-0.447-1.37-0.529c-0.191-0.031-0.387-0.052-0.586-0.052c-0.201,0-0.396,0.021-0.587,0.052
		c-0.499,0.082-0.963,0.265-1.37,0.529c-0.331,0.215-0.624,0.483-0.868,0.792c-0.368,0.467-0.621,1.026-0.722,1.638
		c-0.031,0.191-0.052,0.387-0.052,0.586c0,0.202,0.021,0.397,0.052,0.586c0.101,0.613,0.354,1.172,0.722,1.639
		c0.244,0.309,0.536,0.578,0.868,0.793c0.407,0.264,0.872,0.447,1.37,0.529c0.191,0.029,0.387,0.051,0.587,0.051
		s0.395-0.021,0.586-0.051c0.499-0.082,0.964-0.266,1.37-0.529C20.55,17.273,20.843,17.003,21.087,16.695z"/>
</g>
</svg>
